HIERARCHY
ROOT root     
{
	OFFSET 0.0000 0.0000 0.0000
	CHANNELS 6 Xposition Yposition Zposition Zrotation Yrotation Xrotation
	JOINT pelvis   
	{
		OFFSET 0.0000 0.0000 0.0000
		CHANNELS 3 Zrotation Yrotation Xrotation
		JOINT thorax   
		{
			OFFSET 0.0000 23.0750 -5.0000
			CHANNELS 3 Zrotation Yrotation Xrotation
			JOINT rclavicle
			{
				OFFSET 0.0000 28.0009 0.0000
				CHANNELS 3 Zrotation Yrotation Xrotation
				JOINT rhumerus 
				{
					OFFSET -18.5725 5.5939 0.0000
					CHANNELS 3 Zrotation Yrotation Xrotation
					JOINT rradius  
					{
						OFFSET -24.8459 0.0000 0.0000
						CHANNELS 3 Zrotation Yrotation Xrotation
						JOINT rhand    
						{
							OFFSET -24.5477 0.0000 0.0000
							CHANNELS 3 Zrotation Yrotation Xrotation
							End Site
							{
								OFFSET -8.1826 0.0000 0.0000
							}
						}
					}
				}
			}
			JOINT lclavicle
			{
				OFFSET 0.0000 28.0009 0.0000
				CHANNELS 3 Zrotation Yrotation Xrotation
				JOINT lhumerus 
				{
					OFFSET 18.5725 5.5939 0.0000
					CHANNELS 3 Zrotation Yrotation Xrotation
					JOINT lradius  
					{
						OFFSET 24.8459 0.0000 0.0000
						CHANNELS 3 Zrotation Yrotation Xrotation
						JOINT lhand    
						{
							OFFSET 24.5477 0.0000 0.0000
							CHANNELS 3 Zrotation Yrotation Xrotation
							End Site
							{
								OFFSET 8.1826 0.0000 0.0000
							}
						}
					}
				}
			}
			JOINT head     
			{
				OFFSET 0.0000 35.2030 0.0000
				CHANNELS 3 Zrotation Yrotation Xrotation
				End Site
				{
					OFFSET 0.0000 11.7343 0.0000
				}
			}
		}
		JOINT rfemur   
		{
			OFFSET -8.2817 0.0000 0.0000
			CHANNELS 3 Zrotation Yrotation Xrotation
			JOINT rtibia   
			{
				OFFSET 0.0000 -43.3627 0.0000
				CHANNELS 3 Zrotation Yrotation Xrotation
				JOINT rfoot    
				{
					OFFSET 0.0000 -38.2947 0.0000
					CHANNELS 3 Zrotation Yrotation Xrotation
					JOINT rtoes    
					{
						OFFSET 0.0000 0.0000 16.6054
						CHANNELS 3 Zrotation Yrotation Xrotation
						End Site
						{
							OFFSET 0.0000 0.0000 5.5351
						}
					}
				}
			}
		}
		JOINT lfemur   
		{
			OFFSET 8.2817 0.0000 0.0000
			CHANNELS 3 Zrotation Yrotation Xrotation
			JOINT ltibia   
			{
				OFFSET 0.0000 -43.3627 0.0000
				CHANNELS 3 Zrotation Yrotation Xrotation
				JOINT lfoot    
				{
					OFFSET 0.0000 -38.2947 0.0000
					CHANNELS 3 Zrotation Yrotation Xrotation
					JOINT ltoes    
					{
						OFFSET 0.0000 0.0000 16.6054
						CHANNELS 3 Zrotation Yrotation Xrotation
						End Site
						{
							OFFSET 0.0000 0.0000 5.5351
						}
					}
				}
			}
		}
	}
}
MOTION
Frames: 19
Frame Time: .0333333
110.41 75.432 16.177 -130.044 -87.699 145.632 0 -0 0 -1.95073 -12.2478 15.9443 29.3495 -18.5121 0.000200874 49.1269 -18.5474 6.2457 -8.16248e-07 63.6113 -5.06208e-07 0.0469001 4.36836 0.0018 -15.821 15.9207 -6.38162e-05 -43.7009 0.791605 0.446898 6.2454e-06 -89.1312 -6.84185e-06 1.17447 3.59504 0.0368991 6.49554 7.43623 -23.4421 9.01885 -9.56971 -60.0009 -0 -0 45.6845 -3.88884e-06 -7.09384 1.58135 -0.196796 5.88485e-07 -36.0244 -1.25961 16.3366 -24.8905 -0 -0 63.2451 2.36357e-05 7.09123 -24.2651 -2.92672 -3.68756e-06 -48.3692 
109.62 75.318 16.045 -132.74 -87.95 148.253 0 -0 0 -1.7798 -12.3914 15.8624 29.329 -18.5281 1.02907e-05 49.1402 -18.5854 6.13425 -0 63.4706 -0 0.1798 4.36549 0.0069 -15.9671 15.9949 0.000164479 -43.7546 1.0778 0.500401 -1.03224e-05 -89.0286 1.01536e-05 1.0648 3.58727 0.0332994 6.24565 7.35757 -23.5101 8.58617 -9.47101 -60.0162 -0 -0 46.8844 7.46689e-07 -7.11014 1.53978 -0.191995 2.30334e-06 -34.1543 -1.16694 16.3064 -24.177 -0 -0 63.1931 -1.23091e-05 6.93301 -24.0635 -2.83842 -1.20757e-05 -49.4348 
108.84 75.213 15.906 -135.84 -88.1427 151.285 0 -0 0 -1.56729 -12.5195 15.7807 29.3017 -18.5245 4.52114e-05 49.1325 -18.587 6.04087 -8.09235e-07 63.3187 -4.99005e-07 0.3164 4.35664 0.0119999 -16.1394 16.0554 0.000121148 -43.8326 1.3845 0.533299 1.2915e-05 -88.907 -1.31653e-05 0.955092 3.58065 0.0299 5.97458 7.28323 -23.5902 8.20657 -9.37695 -60.0369 -0 -0 48.1064 1.63246e-06 -7.079 1.44058 -0.178904 -1.73833e-06 -32.0179 -1.0418 16.2932 -23.4648 -0 -0 63.125 2.5938e-05 6.76889 -23.8268 -2.74522 -2.2382e-05 -50.5421 
108.04 75.119 15.762 -140.088 -88.318 155.453 0 -0 0 -1.3459 -12.6161 15.7283 29.2747 -18.5089 2.06037e-06 49.1076 -18.5441 5.96112 -4.94991e-07 63.1557 -8.05315e-07 0.449508 4.34206 0.0170003 -16.3168 16.1141 3.63795e-06 -43.9454 1.68724 0.555892 -6.6225e-06 -88.6805 6.47157e-06 0.849387 3.57438 0.0264992 5.69135 7.21368 -23.6872 7.86899 -9.30494 -60.0368 -0 -0 49.3362 2.51154e-06 -6.96854 1.24967 -0.152694 2.72751e-07 -29.5351 -0.901461 16.305 -22.716 -0 -0 63.0195 -4.7528e-06 6.60403 -23.5538 -2.64893 -5.29379e-05 -51.7179 
107.25 75.037 15.609 -144.68 -88.4417 159.981 0 -0 0 -1.08362 -12.697 15.6663 29.2349 -18.4773 0.000102076 49.0727 -18.4617 5.88633 -6.93783e-07 62.9693 -1.13283e-06 0.581897 4.32338 0.0219996 -16.5095 16.1554 5.83989e-05 -44.0875 2.01349 0.558373 0 -88.4144 0 0.751211 3.57116 0.0234003 5.39396 7.15654 -23.7909 7.59365 -9.24156 -60.0283 -0 -0 50.5197 5.84029e-07 -6.79472 0.979589 -0.116701 5.64593e-08 -26.8311 -0.73036 16.3336 -21.9797 -0 -0 62.8926 6.1951e-05 6.43618 -23.2408 -2.54884 -2.08492e-05 -52.9569 
106.44 74.967 15.451 -150.103 -88.5093 165.329 0 -0 0 -0.811217 -12.7479 15.6227 29.1911 -18.437 0.000172506 49.0322 -18.333 5.81126 -6.86966e-07 62.7652 -1.1262e-06 0.707493 4.29904 0.0265998 -16.6984 16.1957 7.86949e-05 -44.2734 2.33361 0.554442 6.90857e-06 -88.0551 -7.14724e-06 0.663593 3.56764 0.0207 5.09269 7.10981 -23.9031 7.36583 -9.19831 -59.9838 -0 -0 51.6522 7.17838e-07 -6.53949 0.602391 -0.0690997 -1.53106e-07 -23.8789 -0.54282 16.3855 -21.2157 -0 -0 62.7271 -3.10114e-05 6.2664 -22.8852 -2.44518 1.0492e-06 -54.2604 
105.64 74.909 15.284 -155.499 -88.5439 170.668 0 -0 0 -0.511655 -12.7812 15.5664 29.1378 -18.3867 9.62674e-05 48.9964 -18.1684 5.72608 -0 62.5387 -0 0.827696 4.27182 0.0309 -16.8877 16.2265 -5.33499e-05 -44.4976 2.66544 0.54104 3.58343e-06 -87.651 -3.73435e-06 0.585607 3.56512 0.0182004 4.78947 7.07762 -24.0133 7.19375 -9.16742 -59.9187 -0 -0 52.7055 -8.59085e-08 -6.2241 0.131001 -0.0142996 6.52599e-08 -20.7975 -0.33534 16.4501 -20.4621 -0 -0 62.5358 2.06977e-05 6.09312 -22.4809 -2.33746 -2.3503e-05 -55.6186 
104.83 74.864 15.111 -160.842 -88.5418 175.964 0 -0 0 -0.200049 -12.7949 15.5024 29.0747 -18.3302 -3.65487e-05 48.9673 -17.9683 5.62262 -0 62.2878 -0 0.941002 4.24174 0.0348005 -17.0673 16.2513 -0.000133088 -44.7647 2.9996 0.52485 0 -87.1533 0 0.516294 3.56205 0.0160999 4.49212 7.05874 -24.1143 7.06692 -9.15473 -59.8188 -0 -0 53.6781 -7.72059e-07 -5.85537 -0.437392 0.0449004 -1.761e-07 -17.6504 -0.117423 16.5224 -19.7071 -0 -0 62.3142 2.75505e-05 5.91569 -22.024 -2.22523 -2.17511e-05 -57.0077 
104.02 74.829 14.932 -165.751 -88.486 -179.157 0 -0 0 0.124446 -12.7957 15.4137 29.0017 -18.266 9.1198e-05 48.9534 -17.74 5.49283 -4.68653e-07 62.015 -7.7974e-07 1.04791 4.20924 0.0385002 -17.2328 16.2724 -4.41709e-05 -45.0713 3.3383 0.508706 -5.20198e-06 -86.5725 4.89997e-06 0.452503 3.55666 0.0141 4.2056 7.05459 -24.1982 6.97964 -9.15481 -59.695 -0 -0 54.5622 -1.19144e-07 -5.45776 -1.06711 0.101998 4.06536e-07 -14.7507 0.104554 16.589 -18.9732 -0 -0 62.0684 1.84569e-05 5.73482 -21.5117 -2.10911 -1.24128e-05 -58.3964 
103.21 74.806 14.751 -170.403 -88.4258 -174.531 0 -0 0 0.443469 -12.7721 15.328 28.9237 -18.2052 -8.84385e-05 48.9536 -17.4809 5.33268 -0 61.7271 -0 1.14109 4.17427 0.0416001 -17.3749 16.2955 8.10041e-06 -45.4254 3.661 0.501337 -2.19449e-06 -85.9106 2.04345e-06 0.3912 3.54671 0.0120999 3.93453 7.05738 -24.2634 6.91947 -9.17766 -59.5221 -0 -0 55.3763 1.4994e-06 -5.03314 -1.79667 0.158192 -1.08584e-06 -11.7961 0.32512 16.654 -18.2203 -0 -0 61.7854 1.00738e-05 5.54702 -20.9412 -1.98807 -2.19812e-05 -59.762 
102.4 74.792 14.565 -174.47 -88.337 -170.462 0 -0 0 0.769031 -12.7471 15.2005 28.8368 -18.1369 -0.000143552 48.9757 -17.2076 5.13174 -7.67272e-07 61.4219 -4.55776e-07 1.22775 4.1373 0.0442984 -17.4996 16.3146 -4.97852e-05 -45.8145 3.9924 0.495127 0 -85.191 0 0.327696 3.5326 0.0100999 3.68083 7.07218 -24.2979 6.88329 -9.21115 -59.3332 -0 -0 56.1115 2.16152e-06 -4.62122 -2.54095 0.205297 1.36937e-07 -9.42271 0.536291 16.6915 -17.5069 -0 -0 61.4878 -6.70438e-06 5.35821 -20.3127 -1.86486 -2.45627e-05 -61.0617 
101.58 74.788 14.377 -178.145 -88.2267 -166.776 0 -0 0 1.09031 -12.7088 15.0603 28.744 -18.0697 1.47907e-05 49.0147 -16.917 4.89134 -0 61.1137 -0 1.29934 4.09762 0.0464977 -17.6009 16.3344 6.15458e-05 -46.2423 4.31196 0.497098 -2.28259e-06 -84.3758 2.06889e-06 0.258995 3.51255 0.00789994 3.44428 7.09139 -24.3045 6.86104 -9.26114 -59.1111 -0 -0 56.7896 -4.14871e-06 -4.22521 -3.32679 0.245606 -1.55168e-07 -7.34893 0.736882 16.7047 -16.7996 -0 -0 61.1666 -1.6217e-05 5.16703 -19.6259 -1.73973 -1.14606e-05 -62.2796 
100.77 74.793 14.189 178.572 -88.0941 -163.471 0 -0 0 1.40763 -12.6633 14.9056 28.6471 -18.0034 3.35954e-05 49.0715 -16.6128 4.60955 -0 60.8066 -0 1.35443 4.05491 0.0479015 -17.6787 16.3572 0.000106442 -46.7044 4.61959 0.506282 1.08333e-06 -83.4873 -1.66742e-06 0.182797 3.48631 0.00559989 3.22274 7.11257 -24.2851 6.8474 -9.32551 -58.8624 -0 -0 57.4161 -3.52129e-06 -3.85958 -4.13327 0.278608 1.91104e-07 -5.66587 0.923888 16.6864 -16.1062 -0 -0 60.8254 -4.99073e-06 4.97704 -18.8847 -1.61454 -1.91967e-05 -63.4038 
99.968 74.806 14 175.753 -87.9822 -160.589 0 -0 0 1.73373 -12.6251 14.7095 28.5433 -17.9311 2.84359e-05 49.1445 -16.3048 4.28665 -0 60.5063 -0 1.39398 4.01271 0.0487997 -17.7446 16.3774 -0.000118779 -47.1902 4.93487 0.511781 -1.74706e-06 -82.5406 1.53317e-06 0.0976014 3.45613 0.00290001 3.01245 7.13872 -24.2364 6.84249 -9.39518 -58.6124 -0 -0 57.9945 -2.16136e-06 -3.5448 -4.91015 0.3038 1.10352e-07 -4.63911 1.09467 16.624 -15.469 -0 -0 60.4832 -8.102e-06 4.79655 -18.0957 -1.49303 -6.424e-06 -64.4302 
99.164 74.828 13.811 173.267 -87.8654 -158.029 0 -0 0 2.06087 -12.5801 14.5076 28.4392 -17.8597 -4.07547e-05 49.2253 -15.9863 3.92812 -6.09928e-07 60.2249 -1.05165e-06 1.40985 3.96767 0.0487974 -17.792 16.3996 -9.09922e-05 -47.7028 5.23504 0.51993 -1.55112e-06 -81.5199 1.33708e-06 0.00530001 3.42185 0.000199992 2.80763 7.16104 -24.1707 6.84077 -9.47656 -58.3438 -0 -0 58.5385 4.65086e-06 -3.26894 -5.68728 0.3243 -6.96167e-08 -3.93125 1.25283 16.5289 -14.849 -0 -0 60.1296 1.05422e-05 4.62524 -17.2611 -1.37523 -1.88492e-05 -65.3809 
98.371 74.858 13.622 171.214 -87.7583 -155.865 0 -0 0 2.4053 -12.5479 14.272 28.3292 -17.7801 0.000112673 49.3143 -15.6643 3.54018 -0 59.967 -0 1.40281 3.92696 0.0481008 -17.8357 16.4182 -5.16005e-05 -48.2285 5.54184 0.517898 1.66415e-06 -80.4638 -1.96705e-06 -0.0928005 3.38747 -0.0027 2.60271 7.18475 -24.0915 6.84822 -9.5592 -58.0872 -0 -0 59.0407 -4.00212e-06 -3.04353 -6.42043 0.340706 2.31122e-07 -3.73847 1.39895 16.3911 -14.2985 -0 -0 59.7899 -2.68872e-05 4.47253 -16.3909 -1.26438 -4.06617e-06 -66.2774 
97.585 74.897 13.433 169.544 -87.6269 -154.076 0 -0 0 2.7625 -12.516 14.0352 28.2211 -17.6992 -5.97342e-05 49.4029 -15.3321 3.12903 -0 59.7451 -0 1.36777 3.88614 0.0464031 -17.8711 16.439 -4.48981e-06 -48.7695 5.83771 0.51067 5.49354e-07 -79.3522 -1.13504e-06 -0.191706 3.35308 -0.00560012 2.39058 7.20123 -24.0131 6.86323 -9.64955 -57.8241 -0 -0 59.5092 2.87104e-06 -2.84861 -7.13156 0.353902 4.66949e-07 -3.78989 1.5393 16.2274 -13.7842 -0 -0 59.4533 -1.50557e-05 4.33557 -15.4842 -1.15949 -3.52816e-06 -67.1688 
96.813 74.944 13.244 168.246 -87.5215 -152.623 0 -0 0 3.14244 -12.4931 13.7826 28.1119 -17.6102 -1.17086e-05 49.4888 -14.9928 2.70449 -5.91834e-07 59.5599 -1.03424e-06 1.30412 3.85247 0.0439002 -17.9117 16.455 -5.36398e-05 -49.3146 6.13511 0.490702 9.32319e-07 -78.2148 -1.1469e-06 -0.287697 3.32293 -0.00829994 2.16822 7.21393 -23.9429 6.89218 -9.74255 -57.5762 -0 -0 59.9373 2.80025e-06 -2.68125 -7.80063 0.364202 -3.30963e-07 -4.11178 1.67558 16.0356 -13.3402 -0 -0 59.1387 1.44907e-05 4.21944 -14.547 -1.0616 9.38803e-06 -68.0885 
96.055 75 13.054 167.343 -87.4302 -151.539 0 -0 0 3.54548 -12.4771 13.5253 28.0059 -17.5152 8.93101e-05 49.5656 -14.6424 2.2751 -0 59.4185 -0 1.21063 3.82787 0.0405016 -17.9551 16.469 -0.00010932 -49.8581 6.43053 0.458999 0 -77.0552 0 -0.376397 3.29896 -0.0108001 1.93191 7.21907 -23.8925 6.93759 -9.83962 -57.3385 -0 -0 60.3215 -4.67452e-06 -2.5253 -8.4324 0.370502 -3.92361e-08 -4.58394 1.813 15.8278 -12.9586 -0 -0 58.8522 2.42204e-05 4.12118 -13.5782 -0.969206 2.60111e-06 -69.0742 
